<mxfile host="app.diagrams.net" agent="Mozilla/5.0 (Windows NT 10.0; Win64; x64; rv:128.0) Gecko/20100101 Firefox/128.0" version="24.7.6">
  <diagram name="Page-1" id="7e0a89b8-554c-2b80-1dc8-d5c74ca68de4">
    <mxGraphModel dx="276" dy="149" grid="1" gridSize="10" guides="1" tooltips="1" connect="1" arrows="1" fold="1" page="1" pageScale="1" pageWidth="1100" pageHeight="850" background="none" math="0" shadow="0">
      <root>
        <mxCell id="0" />
        <mxCell id="1" parent="0" />
        <mxCell id="oNkfjemktj0R144j_IQj-2" value="" style="pointerEvents=1;verticalLabelPosition=bottom;shadow=0;dashed=0;align=center;html=1;verticalAlign=top;shape=mxgraph.electrical.signal_sources.source;aspect=fixed;points=[[0.5,0,0],[1,0.5,0],[0.5,1,0],[0,0.5,0]];elSignalType=dc2;rotation=0;" parent="1" vertex="1">
          <mxGeometry x="80" y="267.5" width="60" height="60" as="geometry" />
        </mxCell>
        <mxCell id="oNkfjemktj0R144j_IQj-3" value="12v&lt;div style=&quot;font-size: 12px;&quot;&gt;1.2A&lt;br style=&quot;font-size: 12px;&quot;&gt;&lt;/div&gt;&lt;div style=&quot;font-size: 12px;&quot;&gt;12W&lt;/div&gt;" style="text;html=1;align=center;verticalAlign=middle;whiteSpace=wrap;rounded=0;fontSize=12;" parent="1" vertex="1">
          <mxGeometry x="30" y="267.5" width="60" height="55" as="geometry" />
        </mxCell>
        <mxCell id="oNkfjemktj0R144j_IQj-7" value="&#xa;&#xa;-D13&#xa;-3V3&#xa;-REF&#xa;-A0&#xa;-A1&#xa;-A2&#xa;-A3&#xa;-A4&#xa;-A5&#xa;-A6&#xa;-A7&#xa;5V&#xa;-RST&#xa;-GND&#xa;-VIN&#xa;" style="swimlane;startSize=0;align=left;verticalAlign=top;" parent="1" vertex="1">
          <mxGeometry x="400" y="140" width="170" height="280" as="geometry" />
        </mxCell>
        <mxCell id="oNkfjemktj0R144j_IQj-9" value="&lt;div&gt;D12-&lt;/div&gt;&lt;div&gt;D11-&lt;/div&gt;&lt;div&gt;D10-&lt;/div&gt;&lt;div&gt;D9-&lt;/div&gt;&lt;div&gt;D8-&lt;/div&gt;&lt;div&gt;D7-&lt;/div&gt;&lt;div&gt;D6-&lt;/div&gt;&lt;div&gt;D5-&lt;/div&gt;&lt;div&gt;D4-&lt;/div&gt;&lt;div&gt;D3-&lt;/div&gt;&lt;div&gt;D2-&lt;/div&gt;&lt;div&gt;GND-&lt;/div&gt;&lt;div&gt;RST-&lt;/div&gt;&lt;div&gt;RX0/D1-&lt;/div&gt;&lt;div&gt;TX1/D0-&lt;/div&gt;&lt;div&gt;&lt;br&gt;&lt;/div&gt;" style="text;html=1;align=right;verticalAlign=top;whiteSpace=wrap;rounded=0;fontStyle=1" parent="oNkfjemktj0R144j_IQj-7" vertex="1">
          <mxGeometry x="110" y="30" width="60" height="170" as="geometry" />
        </mxCell>
        <mxCell id="oNkfjemktj0R144j_IQj-11" value="&lt;div&gt;Arduino Nano&lt;/div&gt;&lt;div&gt;(5v)&lt;/div&gt;" style="text;html=1;align=center;verticalAlign=middle;whiteSpace=wrap;rounded=0;fontSize=16;" parent="oNkfjemktj0R144j_IQj-7" vertex="1">
          <mxGeometry x="55" y="20" width="60" height="30" as="geometry" />
        </mxCell>
        <mxCell id="oNkfjemktj0R144j_IQj-12" value="" style="endArrow=none;html=1;rounded=0;entryX=0.5;entryY=1;entryDx=0;entryDy=0;entryPerimeter=0;" parent="1" source="e_Ju6X9RB5ed9B5Gke0L-20" target="oNkfjemktj0R144j_IQj-2" edge="1">
          <mxGeometry width="50" height="50" relative="1" as="geometry">
            <mxPoint x="110" y="387" as="sourcePoint" />
            <mxPoint x="123" y="246.5" as="targetPoint" />
            <Array as="points" />
          </mxGeometry>
        </mxCell>
        <mxCell id="oNkfjemktj0R144j_IQj-17" value="" style="endArrow=none;html=1;rounded=0;entryX=0.5;entryY=0;entryDx=0;entryDy=0;entryPerimeter=0;exitDx=0;exitDy=0;exitPerimeter=0;" parent="1" target="oNkfjemktj0R144j_IQj-2" edge="1" source="e_Ju6X9RB5ed9B5Gke0L-17">
          <mxGeometry width="50" height="50" relative="1" as="geometry">
            <mxPoint x="180" y="350" as="sourcePoint" />
            <mxPoint x="95" y="237.5" as="targetPoint" />
            <Array as="points">
              <mxPoint x="110" y="250" />
            </Array>
          </mxGeometry>
        </mxCell>
        <mxCell id="oNkfjemktj0R144j_IQj-18" value="+" style="text;html=1;align=center;verticalAlign=middle;whiteSpace=wrap;rounded=0;fontSize=20;" parent="1" vertex="1">
          <mxGeometry x="70" y="319" width="20" height="10" as="geometry" />
        </mxCell>
        <mxCell id="oNkfjemktj0R144j_IQj-19" value="&lt;div style=&quot;font-size: 20px;&quot;&gt;-&lt;/div&gt;" style="text;html=1;align=center;verticalAlign=middle;whiteSpace=wrap;rounded=0;fontSize=20;" parent="1" vertex="1">
          <mxGeometry x="80" y="255" width="10" height="20" as="geometry" />
        </mxCell>
        <mxCell id="oNkfjemktj0R144j_IQj-21" value="" style="endArrow=none;html=1;rounded=0;entryX=-0.001;entryY=0.152;entryDx=0;entryDy=0;entryPerimeter=0;exitX=0.996;exitY=0.688;exitDx=0;exitDy=0;exitPerimeter=0;" parent="1" source="oNkfjemktj0R144j_IQj-9" target="oNkfjemktj0R144j_IQj-22" edge="1">
          <mxGeometry width="50" height="50" relative="1" as="geometry">
            <mxPoint x="571" y="184" as="sourcePoint" />
            <mxPoint x="660" y="150" as="targetPoint" />
            <Array as="points">
              <mxPoint x="600" y="287" />
              <mxPoint x="600" y="310" />
              <mxPoint x="665" y="309" />
              <mxPoint x="665" y="305" />
              <mxPoint x="675" y="305" />
              <mxPoint x="675" y="309" />
            </Array>
          </mxGeometry>
        </mxCell>
        <mxCell id="oNkfjemktj0R144j_IQj-22" value="&lt;div&gt;Boost-up&lt;/div&gt;&lt;div&gt;5v a 12v&lt;br&gt;&lt;/div&gt;" style="rounded=0;whiteSpace=wrap;html=1;" parent="1" vertex="1">
          <mxGeometry x="710" y="300" width="120" height="60" as="geometry" />
        </mxCell>
        <mxCell id="oNkfjemktj0R144j_IQj-23" value="" style="endArrow=none;html=1;rounded=0;entryX=-0.011;entryY=0.629;entryDx=0;entryDy=0;entryPerimeter=0;exitX=1.002;exitY=0.729;exitDx=0;exitDy=0;exitPerimeter=0;" parent="1" source="oNkfjemktj0R144j_IQj-7" target="oNkfjemktj0R144j_IQj-22" edge="1">
          <mxGeometry width="50" height="50" relative="1" as="geometry">
            <mxPoint x="570" y="300" as="sourcePoint" />
            <mxPoint x="620" y="190" as="targetPoint" />
            <Array as="points">
              <mxPoint x="670" y="345" />
              <mxPoint x="670" y="338" />
            </Array>
          </mxGeometry>
        </mxCell>
        <mxCell id="oNkfjemktj0R144j_IQj-24" value="&lt;div&gt;Vout +&lt;/div&gt;&lt;div&gt;&lt;br&gt;&lt;/div&gt;&lt;div&gt;&lt;br&gt;&lt;/div&gt;&lt;div&gt;Vout-&lt;br&gt;&lt;/div&gt;" style="text;html=1;align=right;verticalAlign=top;whiteSpace=wrap;rounded=0;fontSize=7;" parent="1" vertex="1">
          <mxGeometry x="800" y="300" width="30" height="30" as="geometry" />
        </mxCell>
        <mxCell id="oNkfjemktj0R144j_IQj-25" value="&lt;div&gt;&lt;font style=&quot;font-size: 7px;&quot;&gt;+ Vin&lt;/font&gt;&lt;/div&gt;&lt;div&gt;&lt;font style=&quot;font-size: 7px;&quot;&gt;&lt;br&gt;&lt;/font&gt;&lt;/div&gt;&lt;div&gt;&lt;font style=&quot;font-size: 7px;&quot;&gt;&lt;br&gt;&lt;/font&gt;&lt;/div&gt;&lt;div&gt;&lt;font style=&quot;font-size: 7px;&quot;&gt;- Vin&lt;br&gt;&lt;/font&gt;&lt;/div&gt;" style="text;html=1;align=left;verticalAlign=top;whiteSpace=wrap;rounded=0;fontSize=7;" parent="1" vertex="1">
          <mxGeometry x="710" y="300" width="30" height="30" as="geometry" />
        </mxCell>
        <mxCell id="oNkfjemktj0R144j_IQj-27" value="" style="endArrow=none;html=1;rounded=0;entryX=1.008;entryY=0.152;entryDx=0;entryDy=0;entryPerimeter=0;exitX=0;exitY=0.57;exitDx=0;exitDy=0;exitPerimeter=0;" parent="1" source="oNkfjemktj0R144j_IQj-29" target="oNkfjemktj0R144j_IQj-22" edge="1">
          <mxGeometry width="50" height="50" relative="1" as="geometry">
            <mxPoint x="920" y="290" as="sourcePoint" />
            <mxPoint x="800" y="420" as="targetPoint" />
            <Array as="points">
              <mxPoint x="900" y="290" />
              <mxPoint x="870" y="290" />
              <mxPoint x="870" y="309" />
            </Array>
          </mxGeometry>
        </mxCell>
        <mxCell id="oNkfjemktj0R144j_IQj-29" value="" style="verticalLabelPosition=bottom;shadow=0;dashed=0;align=center;html=1;verticalAlign=top;shape=mxgraph.electrical.opto_electronics.led_2;pointerEvents=1;rotation=90;" parent="1" vertex="1">
          <mxGeometry x="887" y="299" width="28.57" height="20" as="geometry" />
        </mxCell>
        <mxCell id="oNkfjemktj0R144j_IQj-31" value="" style="verticalLabelPosition=bottom;shadow=0;dashed=0;align=center;html=1;verticalAlign=top;shape=mxgraph.electrical.opto_electronics.led_2;pointerEvents=1;rotation=90;" parent="1" vertex="1">
          <mxGeometry x="887" y="330" width="28.57" height="20" as="geometry" />
        </mxCell>
        <mxCell id="oNkfjemktj0R144j_IQj-34" value="&lt;div&gt;&lt;br&gt;&lt;/div&gt;&lt;div&gt;eyeLeds&lt;/div&gt;&lt;div&gt;3W LED x2&lt;/div&gt;" style="text;html=1;align=center;verticalAlign=middle;whiteSpace=wrap;rounded=0;fontSize=11;" parent="1" vertex="1">
          <mxGeometry x="929.9999999999999" y="310" width="40" height="30" as="geometry" />
        </mxCell>
        <mxCell id="oNkfjemktj0R144j_IQj-35" value="Ejecutando &quot;Fade in&quot; en los pines 5 y 6" style="text;html=1;whiteSpace=wrap;overflow=hidden;rounded=0;" parent="1" vertex="1">
          <mxGeometry x="710" y="150" width="260" height="30" as="geometry" />
        </mxCell>
        <mxCell id="oNkfjemktj0R144j_IQj-39" value="" style="pointerEvents=1;verticalLabelPosition=bottom;shadow=0;dashed=0;align=center;html=1;verticalAlign=top;shape=mxgraph.electrical.electro-mechanical.loudspeaker;rotation=-90;" parent="1" vertex="1">
          <mxGeometry x="240" y="65" width="40" height="50" as="geometry" />
        </mxCell>
        <mxCell id="oNkfjemktj0R144j_IQj-41" value="3Î©" style="text;html=1;align=center;verticalAlign=middle;whiteSpace=wrap;rounded=0;" parent="1" vertex="1">
          <mxGeometry x="270" y="60" width="60" height="30" as="geometry" />
        </mxCell>
        <mxCell id="oNkfjemktj0R144j_IQj-42" value="Ejecutando startPlayback() en pin 11*" style="text;html=1;whiteSpace=wrap;overflow=hidden;rounded=0;" parent="1" vertex="1">
          <mxGeometry x="100" y="60" width="90" height="60" as="geometry" />
        </mxCell>
        <mxCell id="oNkfjemktj0R144j_IQj-43" value="&lt;h1 style=&quot;margin-top: 0px;&quot;&gt;*startPlayback()&lt;br&gt;&lt;/h1&gt;&lt;p&gt;FunciÃ³n para enviar seÃ±ales de audio codificadas usando PWM.&lt;br&gt;Esta funciÃ³n bloquea los relojes de los pines 3, 9, 10, y 11, debido a que usa los timers OC1B, OC1A, OC2A, y OC2B.&lt;/p&gt;" style="text;html=1;whiteSpace=wrap;overflow=hidden;rounded=0;" parent="1" vertex="1">
          <mxGeometry x="690" y="380" width="180" height="150" as="geometry" />
        </mxCell>
        <mxCell id="eKHMUdfdLuhqoT7u5Fwu-1" value="" style="endArrow=none;html=1;rounded=0;exitX=1;exitY=0.634;exitDx=0;exitDy=0;exitPerimeter=0;entryX=1;entryY=0.57;entryDx=0;entryDy=0;entryPerimeter=0;" parent="1" source="oNkfjemktj0R144j_IQj-22" target="oNkfjemktj0R144j_IQj-31" edge="1">
          <mxGeometry width="50" height="50" relative="1" as="geometry">
            <mxPoint x="850" y="350" as="sourcePoint" />
            <mxPoint x="941" y="338" as="targetPoint" />
            <Array as="points">
              <mxPoint x="870" y="338" />
              <mxPoint x="870" y="360" />
              <mxPoint x="900" y="360" />
            </Array>
          </mxGeometry>
        </mxCell>
        <mxCell id="eKHMUdfdLuhqoT7u5Fwu-3" value="" style="endArrow=none;html=1;rounded=0;entryX=0;entryY=0.57;entryDx=0;entryDy=0;entryPerimeter=0;exitX=1;exitY=0.57;exitDx=0;exitDy=0;exitPerimeter=0;" parent="1" source="oNkfjemktj0R144j_IQj-29" target="oNkfjemktj0R144j_IQj-31" edge="1">
          <mxGeometry width="50" height="50" relative="1" as="geometry">
            <mxPoint x="830" y="300" as="sourcePoint" />
            <mxPoint x="880" y="250" as="targetPoint" />
          </mxGeometry>
        </mxCell>
        <mxCell id="eKHMUdfdLuhqoT7u5Fwu-4" value="&lt;div&gt;Boost-up&lt;/div&gt;&lt;div&gt;5v a 12v&lt;br&gt;&lt;/div&gt;" style="rounded=0;whiteSpace=wrap;html=1;" parent="1" vertex="1">
          <mxGeometry x="710" y="220" width="120" height="60" as="geometry" />
        </mxCell>
        <mxCell id="eKHMUdfdLuhqoT7u5Fwu-5" value="&lt;div&gt;Vout +&lt;/div&gt;&lt;div&gt;&lt;br&gt;&lt;/div&gt;&lt;div&gt;&lt;br&gt;&lt;/div&gt;&lt;div&gt;Vout-&lt;br&gt;&lt;/div&gt;" style="text;html=1;align=right;verticalAlign=top;whiteSpace=wrap;rounded=0;fontSize=7;" parent="1" vertex="1">
          <mxGeometry x="800" y="210" width="30" height="30" as="geometry" />
        </mxCell>
        <mxCell id="eKHMUdfdLuhqoT7u5Fwu-6" value="&lt;div&gt;&lt;font style=&quot;font-size: 7px;&quot;&gt;+ Vin&lt;/font&gt;&lt;/div&gt;&lt;div&gt;&lt;font style=&quot;font-size: 7px;&quot;&gt;&lt;br&gt;&lt;/font&gt;&lt;/div&gt;&lt;div&gt;&lt;font style=&quot;font-size: 7px;&quot;&gt;&lt;br&gt;&lt;/font&gt;&lt;/div&gt;&lt;div&gt;&lt;font style=&quot;font-size: 7px;&quot;&gt;- Vin&lt;br&gt;&lt;/font&gt;&lt;/div&gt;" style="text;html=1;align=left;verticalAlign=top;whiteSpace=wrap;rounded=0;fontSize=7;" parent="1" vertex="1">
          <mxGeometry x="710" y="220" width="30" height="30" as="geometry" />
        </mxCell>
        <mxCell id="eKHMUdfdLuhqoT7u5Fwu-7" value="" style="endArrow=none;html=1;rounded=0;entryX=1.008;entryY=0.152;entryDx=0;entryDy=0;entryPerimeter=0;exitX=0;exitY=0.57;exitDx=0;exitDy=0;exitPerimeter=0;" parent="1" source="eKHMUdfdLuhqoT7u5Fwu-8" target="eKHMUdfdLuhqoT7u5Fwu-4" edge="1">
          <mxGeometry width="50" height="50" relative="1" as="geometry">
            <mxPoint x="920" y="200" as="sourcePoint" />
            <mxPoint x="800" y="330" as="targetPoint" />
            <Array as="points">
              <mxPoint x="900" y="200" />
              <mxPoint x="870" y="200" />
              <mxPoint x="870" y="229" />
            </Array>
          </mxGeometry>
        </mxCell>
        <mxCell id="eKHMUdfdLuhqoT7u5Fwu-8" value="" style="verticalLabelPosition=bottom;shadow=0;dashed=0;align=center;html=1;verticalAlign=top;shape=mxgraph.electrical.opto_electronics.led_2;pointerEvents=1;rotation=90;" parent="1" vertex="1">
          <mxGeometry x="887" y="209" width="28.57" height="20" as="geometry" />
        </mxCell>
        <mxCell id="eKHMUdfdLuhqoT7u5Fwu-9" value="" style="verticalLabelPosition=bottom;shadow=0;dashed=0;align=center;html=1;verticalAlign=top;shape=mxgraph.electrical.opto_electronics.led_2;pointerEvents=1;rotation=90;" parent="1" vertex="1">
          <mxGeometry x="887" y="240" width="28.57" height="20" as="geometry" />
        </mxCell>
        <mxCell id="eKHMUdfdLuhqoT7u5Fwu-10" value="&lt;div&gt;&lt;br&gt;&lt;/div&gt;&lt;div&gt;backLeds&lt;/div&gt;&lt;div&gt;3W LED x2&lt;/div&gt;" style="text;html=1;align=center;verticalAlign=middle;whiteSpace=wrap;rounded=0;fontSize=11;" parent="1" vertex="1">
          <mxGeometry x="929.9999999999999" y="220" width="40" height="30" as="geometry" />
        </mxCell>
        <mxCell id="eKHMUdfdLuhqoT7u5Fwu-11" value="" style="endArrow=none;html=1;rounded=0;exitX=1;exitY=0.634;exitDx=0;exitDy=0;exitPerimeter=0;entryX=1;entryY=0.57;entryDx=0;entryDy=0;entryPerimeter=0;" parent="1" source="eKHMUdfdLuhqoT7u5Fwu-4" target="eKHMUdfdLuhqoT7u5Fwu-9" edge="1">
          <mxGeometry width="50" height="50" relative="1" as="geometry">
            <mxPoint x="850" y="260" as="sourcePoint" />
            <mxPoint x="941" y="248" as="targetPoint" />
            <Array as="points">
              <mxPoint x="870" y="258" />
              <mxPoint x="870" y="270" />
              <mxPoint x="900" y="270" />
            </Array>
          </mxGeometry>
        </mxCell>
        <mxCell id="eKHMUdfdLuhqoT7u5Fwu-12" value="" style="endArrow=none;html=1;rounded=0;entryX=0;entryY=0.57;entryDx=0;entryDy=0;entryPerimeter=0;exitX=1;exitY=0.57;exitDx=0;exitDy=0;exitPerimeter=0;" parent="1" source="eKHMUdfdLuhqoT7u5Fwu-8" target="eKHMUdfdLuhqoT7u5Fwu-9" edge="1">
          <mxGeometry width="50" height="50" relative="1" as="geometry">
            <mxPoint x="830" y="210" as="sourcePoint" />
            <mxPoint x="880" y="160" as="targetPoint" />
          </mxGeometry>
        </mxCell>
        <mxCell id="eKHMUdfdLuhqoT7u5Fwu-13" value="" style="endArrow=none;html=1;rounded=0;entryX=-0.017;entryY=0.633;entryDx=0;entryDy=0;entryPerimeter=0;" parent="1" edge="1">
          <mxGeometry width="50" height="50" relative="1" as="geometry">
            <mxPoint x="670" y="340" as="sourcePoint" />
            <mxPoint x="709.9999999999999" y="259.99999999999994" as="targetPoint" />
            <Array as="points">
              <mxPoint x="670" y="260" />
            </Array>
          </mxGeometry>
        </mxCell>
        <mxCell id="eKHMUdfdLuhqoT7u5Fwu-14" value="" style="endArrow=none;html=1;rounded=0;exitX=0.987;exitY=0.605;exitDx=0;exitDy=0;exitPerimeter=0;" parent="1" source="oNkfjemktj0R144j_IQj-9" edge="1">
          <mxGeometry width="50" height="50" relative="1" as="geometry">
            <mxPoint x="650" y="270" as="sourcePoint" />
            <mxPoint x="710" y="233" as="targetPoint" />
            <Array as="points">
              <mxPoint x="600" y="272" />
              <mxPoint x="600" y="234" />
            </Array>
          </mxGeometry>
        </mxCell>
        <mxCell id="eKHMUdfdLuhqoT7u5Fwu-15" value="" style="shape=waypoint;sketch=0;fillStyle=solid;size=6;pointerEvents=1;points=[];fillColor=none;resizable=0;rotatable=0;perimeter=centerPerimeter;snapToPoint=1;" parent="1" vertex="1">
          <mxGeometry x="660" y="328" width="20" height="20" as="geometry" />
        </mxCell>
        <mxCell id="e_Ju6X9RB5ed9B5Gke0L-2" value="&lt;div&gt;Boost-down&lt;/div&gt;&lt;div&gt;12v a 5v&lt;br&gt;&lt;/div&gt;" style="rounded=0;whiteSpace=wrap;html=1;" vertex="1" parent="1">
          <mxGeometry x="210" y="340" width="120" height="60" as="geometry" />
        </mxCell>
        <mxCell id="e_Ju6X9RB5ed9B5Gke0L-3" value="&lt;div&gt;&lt;br&gt;&lt;/div&gt;&lt;div&gt;Vout -&lt;/div&gt;&lt;div&gt;Vout +&lt;br&gt;&lt;/div&gt;" style="text;html=1;align=right;verticalAlign=top;whiteSpace=wrap;rounded=0;fontSize=7;" vertex="1" parent="1">
          <mxGeometry x="300" y="350" width="30" height="30" as="geometry" />
        </mxCell>
        <mxCell id="e_Ju6X9RB5ed9B5Gke0L-4" value="&lt;font style=&quot;font-size: 7px;&quot;&gt;- Vin&lt;/font&gt;&lt;div&gt;&lt;font style=&quot;font-size: 7px;&quot;&gt;&lt;br&gt;&lt;/font&gt;&lt;/div&gt;&lt;div&gt;&lt;font style=&quot;font-size: 7px;&quot;&gt;&lt;br&gt;&lt;/font&gt;&lt;/div&gt;&lt;div&gt;&lt;font style=&quot;font-size: 7px;&quot;&gt;+ Vin&lt;br&gt;&lt;/font&gt;&lt;/div&gt;" style="text;html=1;align=left;verticalAlign=top;whiteSpace=wrap;rounded=0;fontSize=7;" vertex="1" parent="1">
          <mxGeometry x="210" y="350" width="30" height="30" as="geometry" />
        </mxCell>
        <mxCell id="e_Ju6X9RB5ed9B5Gke0L-5" value="" style="endArrow=none;html=1;rounded=0;exitX=1;exitY=1;exitDx=0;exitDy=0;entryX=0.017;entryY=0.855;entryDx=0;entryDy=0;entryPerimeter=0;" edge="1" parent="1" source="e_Ju6X9RB5ed9B5Gke0L-3" target="oNkfjemktj0R144j_IQj-7">
          <mxGeometry width="50" height="50" relative="1" as="geometry">
            <mxPoint x="280" y="380" as="sourcePoint" />
            <mxPoint x="330" y="330" as="targetPoint" />
          </mxGeometry>
        </mxCell>
        <mxCell id="e_Ju6X9RB5ed9B5Gke0L-6" value="" style="endArrow=none;html=1;rounded=0;entryX=0.02;entryY=0.806;entryDx=0;entryDy=0;entryPerimeter=0;" edge="1" parent="1" target="oNkfjemktj0R144j_IQj-7">
          <mxGeometry width="50" height="50" relative="1" as="geometry">
            <mxPoint x="340" y="370" as="sourcePoint" />
            <mxPoint x="360" y="350" as="targetPoint" />
            <Array as="points">
              <mxPoint x="340" y="370" />
              <mxPoint x="340" y="365" />
            </Array>
          </mxGeometry>
        </mxCell>
        <mxCell id="e_Ju6X9RB5ed9B5Gke0L-7" value="" style="swimlane;startSize=0;" vertex="1" parent="1">
          <mxGeometry x="230" y="140" width="95" height="90" as="geometry">
            <mxRectangle x="230" y="140" width="50" height="40" as="alternateBounds" />
          </mxGeometry>
        </mxCell>
        <mxCell id="e_Ju6X9RB5ed9B5Gke0L-8" value="&lt;font style=&quot;font-size: 8px;&quot;&gt;PAM8610&lt;/font&gt;" style="text;html=1;align=center;verticalAlign=middle;resizable=0;points=[];autosize=1;strokeColor=none;fillColor=none;" vertex="1" parent="e_Ju6X9RB5ed9B5Gke0L-7">
          <mxGeometry x="5" y="20" width="60" height="30" as="geometry" />
        </mxCell>
        <mxCell id="e_Ju6X9RB5ed9B5Gke0L-9" value="&lt;div style=&quot;font-size: 8px;&quot; align=&quot;left&quot;&gt;&lt;font style=&quot;font-size: 8px;&quot;&gt;+12v&lt;/font&gt;&lt;/div&gt;&lt;div style=&quot;font-size: 8px;&quot; align=&quot;left&quot;&gt;&lt;font style=&quot;font-size: 8px;&quot;&gt;-GND&lt;br&gt;&lt;/font&gt;&lt;/div&gt;" style="text;html=1;align=left;verticalAlign=middle;resizable=0;points=[];autosize=1;strokeColor=none;fillColor=none;" vertex="1" parent="e_Ju6X9RB5ed9B5Gke0L-7">
          <mxGeometry y="50" width="40" height="30" as="geometry" />
        </mxCell>
        <mxCell id="e_Ju6X9RB5ed9B5Gke0L-10" value="&lt;div&gt;&lt;font style=&quot;font-size: 6px;&quot;&gt;switch&lt;/font&gt;-&lt;/div&gt;&lt;div style=&quot;line-height: 20%;&quot;&gt;-&lt;br&gt;&lt;/div&gt;" style="text;html=1;align=right;verticalAlign=middle;resizable=0;points=[];autosize=1;strokeColor=none;fillColor=none;spacing=0;" vertex="1" parent="e_Ju6X9RB5ed9B5Gke0L-7">
          <mxGeometry x="55" width="40" height="30" as="geometry" />
        </mxCell>
        <mxCell id="e_Ju6X9RB5ed9B5Gke0L-11" value="&lt;p style=&quot;line-height: 80%;&quot;&gt;&lt;/p&gt;&lt;div align=&quot;right&quot;&gt;&lt;font style=&quot;font-size: 8px;&quot;&gt;L in+&lt;br&gt;&lt;/font&gt;&lt;/div&gt;&lt;div style=&quot;line-height: 80%;&quot; align=&quot;right&quot;&gt;&lt;font style=&quot;font-size: 8px;&quot;&gt;L in-&lt;br&gt;&lt;/font&gt;&lt;/div&gt;&lt;p&gt;&lt;/p&gt;" style="text;html=1;align=right;verticalAlign=middle;resizable=0;points=[];autosize=1;strokeColor=none;fillColor=none;spacing=2;" vertex="1" parent="e_Ju6X9RB5ed9B5Gke0L-7">
          <mxGeometry x="55" y="30" width="40" height="60" as="geometry" />
        </mxCell>
        <mxCell id="e_Ju6X9RB5ed9B5Gke0L-15" value="" style="endArrow=none;html=1;rounded=0;entryX=0;entryY=0.4;entryDx=0;entryDy=0;entryPerimeter=0;exitX=0.8;exitY=0.417;exitDx=0;exitDy=0;exitPerimeter=0;" edge="1" parent="1" source="e_Ju6X9RB5ed9B5Gke0L-13" target="oNkfjemktj0R144j_IQj-39">
          <mxGeometry width="50" height="50" relative="1" as="geometry">
            <mxPoint x="230" y="220" as="sourcePoint" />
            <mxPoint x="280" y="170" as="targetPoint" />
          </mxGeometry>
        </mxCell>
        <mxCell id="e_Ju6X9RB5ed9B5Gke0L-16" value="" style="endArrow=none;html=1;rounded=0;entryX=0;entryY=0.6;entryDx=0;entryDy=0;entryPerimeter=0;exitX=0.8;exitY=0.583;exitDx=0;exitDy=0;exitPerimeter=0;" edge="1" parent="1" source="e_Ju6X9RB5ed9B5Gke0L-13" target="oNkfjemktj0R144j_IQj-39">
          <mxGeometry width="50" height="50" relative="1" as="geometry">
            <mxPoint x="269.83" y="140" as="sourcePoint" />
            <mxPoint x="269.83" y="110" as="targetPoint" />
          </mxGeometry>
        </mxCell>
        <mxCell id="e_Ju6X9RB5ed9B5Gke0L-13" value="&lt;p style=&quot;line-height: 160%;&quot;&gt;&lt;/p&gt;&lt;div style=&quot;font-size: 8px; line-height: 80%;&quot;&gt;&lt;font style=&quot;font-size: 8px;&quot;&gt;L out +&lt;/font&gt;&lt;/div&gt;&lt;div style=&quot;font-size: 8px; line-height: 160%;&quot;&gt;&lt;font style=&quot;font-size: 8px;&quot;&gt;L out -&lt;br&gt;&lt;/font&gt;&lt;/div&gt;&lt;p&gt;&lt;/p&gt;" style="text;html=1;align=center;verticalAlign=middle;resizable=0;points=[];autosize=1;strokeColor=none;fillColor=none;rotation=-90;" vertex="1" parent="1">
          <mxGeometry x="235" y="125" width="50" height="60" as="geometry" />
        </mxCell>
        <mxCell id="e_Ju6X9RB5ed9B5Gke0L-18" value="" style="endArrow=none;html=1;rounded=0;entryDx=0;entryDy=0;entryPerimeter=0;exitX=-0.044;exitY=0.356;exitDx=0;exitDy=0;exitPerimeter=0;" edge="1" parent="1" source="e_Ju6X9RB5ed9B5Gke0L-4" target="e_Ju6X9RB5ed9B5Gke0L-17">
          <mxGeometry width="50" height="50" relative="1" as="geometry">
            <mxPoint x="209" y="361" as="sourcePoint" />
            <mxPoint x="110" y="268" as="targetPoint" />
            <Array as="points">
              <mxPoint x="160" y="360" />
              <mxPoint x="160" y="250" />
            </Array>
          </mxGeometry>
        </mxCell>
        <mxCell id="e_Ju6X9RB5ed9B5Gke0L-17" value="" style="shape=waypoint;sketch=0;fillStyle=solid;size=6;pointerEvents=1;points=[];fillColor=none;resizable=0;rotatable=0;perimeter=centerPerimeter;snapToPoint=1;" vertex="1" parent="1">
          <mxGeometry x="100" y="240" width="20" height="20" as="geometry" />
        </mxCell>
        <mxCell id="e_Ju6X9RB5ed9B5Gke0L-19" value="" style="endArrow=none;html=1;rounded=0;exitX=0.6;exitY=0.583;exitDx=0;exitDy=0;exitPerimeter=0;entryX=0.033;entryY=0.722;entryDx=0;entryDy=0;entryPerimeter=0;" edge="1" parent="1" source="e_Ju6X9RB5ed9B5Gke0L-17" target="e_Ju6X9RB5ed9B5Gke0L-9">
          <mxGeometry width="50" height="50" relative="1" as="geometry">
            <mxPoint x="190" y="270" as="sourcePoint" />
            <mxPoint x="240" y="220" as="targetPoint" />
            <Array as="points">
              <mxPoint x="110" y="212" />
            </Array>
          </mxGeometry>
        </mxCell>
        <mxCell id="e_Ju6X9RB5ed9B5Gke0L-21" value="" style="endArrow=none;html=1;rounded=0;entryDx=0;entryDy=0;entryPerimeter=0;" edge="1" parent="1" target="e_Ju6X9RB5ed9B5Gke0L-20">
          <mxGeometry width="50" height="50" relative="1" as="geometry">
            <mxPoint x="110" y="387" as="sourcePoint" />
            <mxPoint x="110" y="328" as="targetPoint" />
            <Array as="points">
              <mxPoint x="211" y="387" />
              <mxPoint x="110" y="387" />
            </Array>
          </mxGeometry>
        </mxCell>
        <mxCell id="e_Ju6X9RB5ed9B5Gke0L-20" value="" style="shape=waypoint;sketch=0;fillStyle=solid;size=6;pointerEvents=1;points=[];fillColor=none;resizable=0;rotatable=0;perimeter=centerPerimeter;snapToPoint=1;" vertex="1" parent="1">
          <mxGeometry x="100" y="350" width="20" height="20" as="geometry" />
        </mxCell>
        <mxCell id="e_Ju6X9RB5ed9B5Gke0L-22" value="" style="endArrow=none;html=1;rounded=0;exitX=0.5;exitY=0.383;exitDx=0;exitDy=0;exitPerimeter=0;entryX=-0.007;entryY=0.685;entryDx=0;entryDy=0;entryPerimeter=0;" edge="1" parent="1" source="e_Ju6X9RB5ed9B5Gke0L-20" target="e_Ju6X9RB5ed9B5Gke0L-7">
          <mxGeometry width="50" height="50" relative="1" as="geometry">
            <mxPoint x="190" y="330" as="sourcePoint" />
            <mxPoint x="240" y="280" as="targetPoint" />
            <Array as="points">
              <mxPoint x="40" y="360" />
              <mxPoint x="41" y="203" />
            </Array>
          </mxGeometry>
        </mxCell>
        <mxCell id="e_Ju6X9RB5ed9B5Gke0L-23" value="" style="endArrow=none;html=1;rounded=0;exitX=1.05;exitY=0.461;exitDx=0;exitDy=0;exitPerimeter=0;entryX=0.998;entryY=0.18;entryDx=0;entryDy=0;entryPerimeter=0;" edge="1" parent="1" source="e_Ju6X9RB5ed9B5Gke0L-11" target="oNkfjemktj0R144j_IQj-9">
          <mxGeometry width="50" height="50" relative="1" as="geometry">
            <mxPoint x="370" y="260" as="sourcePoint" />
            <mxPoint x="420" y="210" as="targetPoint" />
            <Array as="points">
              <mxPoint x="360" y="198" />
              <mxPoint x="360" y="170" />
              <mxPoint x="370" y="170" />
              <mxPoint x="370" y="160" />
              <mxPoint x="360" y="160" />
              <mxPoint x="360" y="120" />
              <mxPoint x="600" y="120" />
              <mxPoint x="600" y="200" />
            </Array>
          </mxGeometry>
        </mxCell>
        <mxCell id="e_Ju6X9RB5ed9B5Gke0L-26" value="" style="endArrow=none;html=1;rounded=0;exitX=1.001;exitY=0.679;exitDx=0;exitDy=0;exitPerimeter=0;" edge="1" parent="1" source="e_Ju6X9RB5ed9B5Gke0L-3">
          <mxGeometry width="50" height="50" relative="1" as="geometry">
            <mxPoint x="330" y="370" as="sourcePoint" />
            <mxPoint x="340" y="370" as="targetPoint" />
            <Array as="points" />
          </mxGeometry>
        </mxCell>
        <mxCell id="e_Ju6X9RB5ed9B5Gke0L-24" value="" style="shape=waypoint;sketch=0;fillStyle=solid;size=6;pointerEvents=1;points=[];fillColor=none;resizable=0;rotatable=0;perimeter=centerPerimeter;snapToPoint=1;" vertex="1" parent="1">
          <mxGeometry x="370" y="355" width="20" height="20" as="geometry" />
        </mxCell>
        <mxCell id="e_Ju6X9RB5ed9B5Gke0L-27" value="" style="endArrow=none;html=1;rounded=0;entryX=0.974;entryY=0.644;entryDx=0;entryDy=0;entryPerimeter=0;" edge="1" parent="1" source="e_Ju6X9RB5ed9B5Gke0L-24" target="e_Ju6X9RB5ed9B5Gke0L-11">
          <mxGeometry width="50" height="50" relative="1" as="geometry">
            <mxPoint x="360" y="320" as="sourcePoint" />
            <mxPoint x="410" y="270" as="targetPoint" />
            <Array as="points">
              <mxPoint x="380" y="209" />
            </Array>
          </mxGeometry>
        </mxCell>
        <mxCell id="e_Ju6X9RB5ed9B5Gke0L-28" value="" style="endArrow=none;html=1;rounded=0;exitX=1;exitY=0.25;exitDx=0;exitDy=0;" edge="1" parent="1" source="e_Ju6X9RB5ed9B5Gke0L-7">
          <mxGeometry width="50" height="50" relative="1" as="geometry">
            <mxPoint x="330" y="170" as="sourcePoint" />
            <mxPoint x="380" y="163" as="targetPoint" />
            <Array as="points">
              <mxPoint x="350" y="163" />
              <mxPoint x="380" y="163" />
              <mxPoint x="380" y="210" />
            </Array>
          </mxGeometry>
        </mxCell>
        <mxCell id="e_Ju6X9RB5ed9B5Gke0L-29" value="" style="shape=waypoint;sketch=0;fillStyle=solid;size=6;pointerEvents=1;points=[];fillColor=none;resizable=0;rotatable=0;perimeter=centerPerimeter;snapToPoint=1;" vertex="1" parent="1">
          <mxGeometry x="370" y="200" width="20" height="20" as="geometry" />
        </mxCell>
        <mxCell id="e_Ju6X9RB5ed9B5Gke0L-31" value="" style="endArrow=none;html=1;rounded=0;entryX=1.008;entryY=0.444;entryDx=0;entryDy=0;entryPerimeter=0;exitX=1;exitY=0.514;exitDx=0;exitDy=0;exitPerimeter=0;" edge="1" parent="1" source="oNkfjemktj0R144j_IQj-9" target="e_Ju6X9RB5ed9B5Gke0L-10">
          <mxGeometry width="50" height="50" relative="1" as="geometry">
            <mxPoint x="440" y="250" as="sourcePoint" />
            <mxPoint x="490" y="200" as="targetPoint" />
            <Array as="points">
              <mxPoint x="590" y="257" />
              <mxPoint x="590" y="220" />
              <mxPoint x="610" y="220" />
              <mxPoint x="610" y="110" />
              <mxPoint x="350" y="110" />
              <mxPoint x="350" y="153" />
            </Array>
          </mxGeometry>
        </mxCell>
      </root>
    </mxGraphModel>
  </diagram>
</mxfile>
